<svg width="294" height="204" viewBox="0 0 294 204" fill="none" xmlns="http://www.w3.org/2000/svg">
<g clip-path="url(#clip0_513_952)">
<path opacity="0.1" d="M74.7898 81.7397H43.651C42.5483 81.7397 41.6543 82.6327 41.6543 83.7341V90.3534C41.6543 91.4548 42.5483 92.3478 43.651 92.3478H74.7898C75.8925 92.3478 76.7865 91.4548 76.7865 90.3534V83.7341C76.7865 82.6327 75.8925 81.7397 74.7898 81.7397Z" fill="#F42053"/>
<path opacity="0.1" d="M111.556 92.3501H80.4176C79.3149 92.3501 78.4209 93.243 78.4209 94.3445V100.964C78.4209 102.065 79.3149 102.958 80.4176 102.958H111.556C112.659 102.958 113.553 102.065 113.553 100.964V94.3445C113.553 93.243 112.659 92.3501 111.556 92.3501Z" fill="#F42053"/>
<path opacity="0.1" d="M148.325 102.958H117.186C116.083 102.958 115.189 103.851 115.189 104.953V111.572C115.189 112.674 116.083 113.566 117.186 113.566H148.325C149.428 113.566 150.322 112.674 150.322 111.572V104.953C150.322 103.851 149.428 102.958 148.325 102.958Z" fill="#F42053"/>
<path opacity="0.1" d="M74.7898 65.8276H43.651C42.5483 65.8276 41.6543 66.7205 41.6543 67.822V74.4413C41.6543 75.5427 42.5483 76.4356 43.651 76.4356H74.7898C75.8925 76.4356 76.7865 75.5427 76.7865 74.4413V67.822C76.7865 66.7205 75.8925 65.8276 74.7898 65.8276Z" fill="#F42053"/>
<path opacity="0.1" d="M111.556 76.4355H80.4176C79.3149 76.4355 78.4209 77.3285 78.4209 78.4299V85.0492C78.4209 86.1506 79.3149 87.0435 80.4176 87.0435H111.556C112.659 87.0435 113.553 86.1506 113.553 85.0492V78.4299C113.553 77.3285 112.659 76.4355 111.556 76.4355Z" fill="#F42053"/>
<path opacity="0.1" d="M148.325 87.0464H117.186C116.083 87.0464 115.189 87.9393 115.189 89.0408V95.66C115.189 96.7615 116.083 97.6544 117.186 97.6544H148.325C149.428 97.6544 150.322 96.7615 150.322 95.66V89.0408C150.322 87.9393 149.428 87.0464 148.325 87.0464Z" fill="#F42053"/>
<path opacity="0.1" d="M189.176 81.7397H158.037C156.934 81.7397 156.04 82.6327 156.04 83.7341V90.3534C156.04 91.4548 156.934 92.3478 158.037 92.3478H189.176C190.278 92.3478 191.172 91.4548 191.172 90.3534V83.7341C191.172 82.6327 190.278 81.7397 189.176 81.7397Z" fill="#F42053"/>
<path opacity="0.1" d="M225.942 92.3501H194.803C193.701 92.3501 192.807 93.243 192.807 94.3445V100.964C192.807 102.065 193.701 102.958 194.803 102.958H225.942C227.045 102.958 227.939 102.065 227.939 100.964V94.3445C227.939 93.243 227.045 92.3501 225.942 92.3501Z" fill="#F42053"/>
<path opacity="0.1" d="M262.711 102.958H231.572C230.469 102.958 229.575 103.851 229.575 104.953V111.572C229.575 112.674 230.469 113.566 231.572 113.566H262.711C263.813 113.566 264.707 112.674 264.707 111.572V104.953C264.707 103.851 263.813 102.958 262.711 102.958Z" fill="#5A8C43"/>
<path opacity="0.1" d="M189.176 65.8276H158.037C156.934 65.8276 156.04 66.7205 156.04 67.822V74.4413C156.04 75.5427 156.934 76.4356 158.037 76.4356H189.176C190.278 76.4356 191.172 75.5427 191.172 74.4413V67.822C191.172 66.7205 190.278 65.8276 189.176 65.8276Z" fill="#F42053"/>
<path opacity="0.1" d="M225.942 76.4355H194.803C193.701 76.4355 192.807 77.3285 192.807 78.4299V85.0492C192.807 86.1506 193.701 87.0435 194.803 87.0435H225.942C227.045 87.0435 227.939 86.1506 227.939 85.0492V78.4299C227.939 77.3285 227.045 76.4355 225.942 76.4355Z" fill="#5A8C43"/>
<path opacity="0.1" d="M262.711 87.0464H231.572C230.469 87.0464 229.575 87.9393 229.575 89.0408V95.66C229.575 96.7615 230.469 97.6544 231.572 97.6544H262.711C263.813 97.6544 264.707 96.7615 264.707 95.66V89.0408C264.707 87.9393 263.813 87.0464 262.711 87.0464Z" fill="#F42053"/>
<path opacity="0.1" d="M74.7898 44.6089H43.651C42.5483 44.6089 41.6543 45.5018 41.6543 46.6033V53.2225C41.6543 54.324 42.5483 55.2169 43.651 55.2169H74.7898C75.8925 55.2169 76.7865 54.324 76.7865 53.2225V46.6033C76.7865 45.5018 75.8925 44.6089 74.7898 44.6089Z" fill="#F42053"/>
<path opacity="0.1" d="M111.556 55.2168H80.4176C79.3149 55.2168 78.4209 56.1097 78.4209 57.2112V63.8304C78.4209 64.9319 79.3149 65.8248 80.4176 65.8248H111.556C112.659 65.8248 113.553 64.9319 113.553 63.8304V57.2112C113.553 56.1097 112.659 55.2168 111.556 55.2168Z" fill="#F42053"/>
<path opacity="0.1" d="M148.325 65.8276H117.186C116.083 65.8276 115.189 66.7205 115.189 67.822V74.4413C115.189 75.5427 116.083 76.4356 117.186 76.4356H148.325C149.428 76.4356 150.322 75.5427 150.322 74.4413V67.822C150.322 66.7205 149.428 65.8276 148.325 65.8276Z" fill="#F42053"/>
<path opacity="0.1" d="M74.7898 28.6943H43.651C42.5483 28.6943 41.6543 29.5872 41.6543 30.6887V37.308C41.6543 38.4094 42.5483 39.3023 43.651 39.3023H74.7898C75.8925 39.3023 76.7865 38.4094 76.7865 37.308V30.6887C76.7865 29.5872 75.8925 28.6943 74.7898 28.6943Z" fill="#F42053"/>
<path opacity="0.1" d="M111.556 39.3047H80.4176C79.3149 39.3047 78.4209 40.1976 78.4209 41.2991V47.9183C78.4209 49.0198 79.3149 49.9127 80.4176 49.9127H111.556C112.659 49.9127 113.553 49.0198 113.553 47.9183V41.2991C113.553 40.1976 112.659 39.3047 111.556 39.3047Z" fill="#F42053"/>
<path opacity="0.1" d="M148.325 49.9131H117.186C116.083 49.9131 115.189 50.806 115.189 51.9075V58.5267C115.189 59.6282 116.083 60.5211 117.186 60.5211H148.325C149.428 60.5211 150.322 59.6282 150.322 58.5267V51.9075C150.322 50.806 149.428 49.9131 148.325 49.9131Z" fill="#F42053"/>
<path opacity="0.1" d="M189.176 44.6089H158.037C156.934 44.6089 156.04 45.5018 156.04 46.6033V53.2225C156.04 54.324 156.934 55.2169 158.037 55.2169H189.176C190.278 55.2169 191.172 54.324 191.172 53.2225V46.6033C191.172 45.5018 190.278 44.6089 189.176 44.6089Z" fill="#F42053"/>
<path opacity="0.1" d="M225.942 55.2168H194.803C193.701 55.2168 192.807 56.1097 192.807 57.2112V63.8304C192.807 64.9319 193.701 65.8248 194.803 65.8248H225.942C227.045 65.8248 227.939 64.9319 227.939 63.8304V57.2112C227.939 56.1097 227.045 55.2168 225.942 55.2168Z" fill="#5A8C43"/>
<path opacity="0.1" d="M262.711 65.8276H231.572C230.469 65.8276 229.575 66.7205 229.575 67.822V74.4413C229.575 75.5427 230.469 76.4356 231.572 76.4356H262.711C263.813 76.4356 264.707 75.5427 264.707 74.4413V67.822C264.707 66.7205 263.813 65.8276 262.711 65.8276Z" fill="#F42053"/>
<path opacity="0.1" d="M189.176 28.6943H158.037C156.934 28.6943 156.04 29.5872 156.04 30.6887V37.308C156.04 38.4094 156.934 39.3023 158.037 39.3023H189.176C190.278 39.3023 191.172 38.4094 191.172 37.308V30.6887C191.172 29.5872 190.278 28.6943 189.176 28.6943Z" fill="#5A8C43"/>
<path opacity="0.1" d="M225.942 39.3047H194.803C193.701 39.3047 192.807 40.1976 192.807 41.2991V47.9183C192.807 49.0198 193.701 49.9127 194.803 49.9127H225.942C227.045 49.9127 227.939 49.0198 227.939 47.9183V41.2991C227.939 40.1976 227.045 39.3047 225.942 39.3047Z" fill="#F42053"/>
<path opacity="0.1" d="M262.711 49.9131H231.572C230.469 49.9131 229.575 50.806 229.575 51.9075V58.5267C229.575 59.6282 230.469 60.5211 231.572 60.5211H262.711C263.813 60.5211 264.707 59.6282 264.707 58.5267V51.9075C264.707 50.806 263.813 49.9131 262.711 49.9131Z" fill="#5A8C43"/>
<path opacity="0.1" d="M147 204C228.186 204 294 192.042 294 177.292C294 162.542 228.186 150.584 147 150.584C65.8141 150.584 0 162.542 0 177.292C0 192.042 65.8141 204 147 204Z" fill="#F42053"/>
<path d="M64.4977 86.163L52.1357 161.858L108.033 155.952L105.615 149.51L61.9447 153.134L72.1568 86.0288L64.4977 86.163Z" fill="#3F3D56"/>
<path d="M49.9854 0.268421L125.232 0L147 164.542L71.4844 174.742L49.9854 0.268421Z" fill="#3F3D56"/>
<path d="M58.1816 6.57617H118.917L140.147 159.576L77.5308 168.166L58.1816 6.57617Z" fill="white"/>
<path d="M115.461 152.694C115.842 153.424 116.127 154.213 116.624 154.871C118.075 156.809 120.83 157.112 122.897 158.377C123 158.429 123.085 158.511 123.141 158.613C123.235 158.836 123.026 159.069 122.824 159.209C121.257 160.307 119.201 160.331 117.285 160.317C116.641 160.34 115.997 160.279 115.369 160.135C114.356 159.866 113.488 159.16 112.488 158.873C111.97 158.744 111.439 158.669 110.905 158.65L108.807 158.508C108.248 158.5 107.694 158.398 107.17 158.205C106.909 158.105 106.677 157.941 106.496 157.727C106.316 157.513 106.193 157.258 106.138 156.984C106.079 156.538 106.27 156.106 106.383 155.671C106.651 154.64 106.568 153.395 107.372 152.691C107.703 152.438 108.082 152.256 108.487 152.155C109.947 151.663 111.439 151.267 112.951 150.968C114.195 150.724 114.91 151.637 115.461 152.694Z" fill="#3F3D56"/>
<path d="M91.7208 158.5C91.7745 159.072 91.7907 159.727 91.3768 160.127C91.1191 160.34 90.8078 160.48 90.4765 160.529C88.4906 160.991 86.2762 161.023 84.5482 159.944C84.3684 159.842 84.2097 159.706 84.0806 159.544C83.9365 159.324 83.8548 159.069 83.8441 158.806C83.7823 158.046 84.0161 157.298 84.2284 156.565C84.7307 154.826 85.1124 153.055 85.3705 151.263C85.392 151.116 90.4416 152.069 90.7775 152.568C91.1995 153.185 91.2021 154.667 91.315 155.402C91.4852 156.43 91.6205 157.462 91.7208 158.5Z" fill="#3F3D56"/>
<path d="M110.516 88.6512L111.859 101.13C112.128 103.68 112.41 106.244 112.225 108.802C112.01 111.754 111.182 114.707 111.531 117.633C111.669 118.771 111.98 119.887 112.026 121.034C112.034 121.796 111.996 122.558 111.91 123.315C111.303 130.887 113.225 138.4 114.299 145.919C114.472 146.846 114.51 147.794 114.412 148.732C114.273 149.685 113.993 150.936 114.842 151.387L106.866 154.275C105.848 153 106.522 151.016 106.329 149.398C106.151 147.94 105.35 146.641 104.923 145.237C104.536 143.975 104.456 142.647 104.329 141.337C103.633 134.205 101.497 127.258 100.997 120.11C100.981 119.42 100.891 118.733 100.728 118.062C100.459 117.174 99.922 116.398 99.5296 115.563C98.9276 114.31 98.632 112.935 98.3418 111.577L96.6353 103.592C94.91 106.158 94.9799 109.497 94.6386 112.573C94.1602 116.868 93.0906 121.09 92.2199 125.331C92.0176 126.243 91.866 127.166 91.7658 128.096C91.54 130.584 91.9888 133.096 91.7496 135.582C91.4809 138.462 90.2689 141.272 90.5618 144.153C90.7231 145.747 91.3358 147.256 91.7496 148.802C92.1635 150.348 92.3677 152.044 91.7362 153.518C89.5289 152.708 87.1578 152.447 84.8269 152.756C82.2659 150.138 81.8117 146.488 81.637 142.824C81.4623 139.16 81.8842 135.491 81.4274 131.862C81.293 130.788 81.0834 129.741 81.0485 128.67C80.9356 125.237 82.5883 122.024 83.4107 118.688C84.1507 115.684 84.2214 112.555 83.6176 109.521C83.2145 107.516 82.5212 105.57 82.2739 103.538C81.938 100.69 82.5077 97.8205 83.0801 95.0074C83.4644 93.1097 83.846 91.2119 84.2814 89.3249C84.749 87.2984 85.3053 85.2288 86.5549 83.57C88.5543 80.9153 92.1044 79.7369 95.4233 79.9946C98.7422 80.2523 101.841 81.7608 104.582 83.6398C106.742 85.0819 108.733 86.763 110.516 88.6512Z" fill="#192534"/>
<path d="M101.599 40.867C101.449 41.1088 101.344 41.3763 101.29 41.6561C101.223 42.2064 101.559 42.711 101.828 43.1915C102.172 43.8088 102.437 44.4672 102.615 45.151C102.743 45.5742 102.783 46.0192 102.731 46.4582C102.665 46.788 102.547 47.1051 102.382 47.3977C101.863 48.3962 101.094 49.3196 100.049 49.7356C99.2393 50.0334 98.3564 50.0691 97.5254 49.8376C96.6999 49.6042 95.9196 49.234 95.2169 48.7425C94.6247 48.3676 94.092 47.9061 93.6367 47.3735C93.202 46.7911 92.8359 46.1606 92.5457 45.4946C91.9867 44.3269 91.4197 43.0788 91.5218 41.7984C91.5271 41.6823 91.5488 41.5675 91.5863 41.4575C91.6735 41.2587 91.7955 41.0769 91.9464 40.9207C93.0929 39.5636 93.6808 37.8223 93.5911 36.0488L97.5066 36.9373C98.3692 37.1332 99.2319 37.3292 100.084 37.5735C100.783 37.7748 101.857 38.0539 102.312 38.6767C102.766 39.2994 101.909 40.2979 101.599 40.867Z" fill="#FBBEBE"/>
<path d="M99.5029 40.2014C103.433 40.2014 106.619 37.0192 106.619 33.0936C106.619 29.1681 103.433 25.9858 99.5029 25.9858C95.5728 25.9858 92.3867 29.1681 92.3867 33.0936C92.3867 37.0192 95.5728 40.2014 99.5029 40.2014Z" fill="#FBBEBE"/>
<path d="M98.3581 47.4328C98.6591 46.7752 99.3095 46.3591 99.9034 45.9458C100.497 45.5324 101.099 45.0036 101.215 44.2869C101.222 44.1248 101.262 43.9659 101.333 43.8199C101.561 43.4763 102.104 43.6481 102.43 43.9004C103.22 44.5151 103.757 45.3874 104.281 46.2383C104.959 47.2731 105.539 48.3685 106.014 49.5104C106.77 51.4994 106.861 53.6709 106.944 55.7941C107.02 57.7268 107.092 59.6889 106.622 61.5625C106.326 62.7489 105.816 63.9004 105.786 65.1218C105.697 69.5588 104.155 73.7998 104.047 78.2368C104.039 79.5198 104.104 80.8022 104.241 82.0779L104.493 84.9581C100.586 84.7344 96.6893 84.3917 92.8033 83.93C92.6904 82.604 92.3115 81.3183 91.9648 80.0352C90.5453 74.7897 89.6354 69.4197 89.2479 63.9998C89.041 61.1223 88.8287 58.2555 88.5089 55.3888C88.2213 52.7824 87.657 50.16 87.9956 47.559C88.1728 46.3767 88.5451 45.232 89.0974 44.1715C89.272 43.749 89.5721 43.3902 89.9574 43.1434C90.1498 43.0505 90.3542 42.9846 90.5647 42.9475C91.174 42.8242 91.7924 42.7515 92.4136 42.7301C92.5655 42.7173 92.7184 42.7318 92.8651 42.773C93.1269 42.9034 93.3419 43.1116 93.4805 43.3689C94.6779 45.1669 96.3724 46.5788 98.3581 47.4328Z" fill="#F2F2F2"/>
<path d="M95.0586 46.8638C95.5584 47.5778 96.6173 47.7469 97.0795 48.4743C97.2352 48.7784 97.3534 49.1001 97.4316 49.4326C97.7137 50.3318 98.2835 51.1129 98.6301 51.9907C99.13 53.2522 99.1434 54.648 99.1488 56.0036C99.1979 57.0833 99.1149 58.165 98.9016 59.2246C98.7403 59.8876 98.4769 60.5184 98.2835 61.1733C97.9548 62.2871 97.8328 63.4515 97.9233 64.6091C97.9234 64.8592 97.9902 65.1047 98.1168 65.3205C98.2991 65.536 98.5371 65.6976 98.8048 65.7875C99.5922 66.1338 100.417 66.4881 101.277 66.4076C101.454 66.402 101.625 66.3451 101.769 66.2438C101.869 66.1531 101.951 66.0449 102.011 65.9244L102.548 65.0171C103.035 64.1877 103.543 63.259 103.355 62.3115C103.218 61.8224 103.013 61.3552 102.745 60.9237C102.401 60.2235 102.108 59.4996 101.868 58.7576C101.011 56.2961 100.143 53.7998 99.9496 51.2015C99.8358 50.2127 99.9461 49.2109 100.272 48.2703C100.525 47.6915 100.842 47.1431 101.218 46.6357C101.133 46.5216 101.015 46.4361 100.88 46.3906C100.745 46.345 100.6 46.3416 100.463 46.3807C100.193 46.4641 99.9308 46.5728 99.6809 46.7054C98.8908 47.0383 98.0147 46.9175 97.2166 46.6893C96.9048 46.5981 96.4103 46.2867 96.0879 46.3082C95.9777 46.3216 95.0774 46.896 95.0586 46.8638Z" fill="#F42053"/>
<path d="M101.349 46.8341C101.188 46.7053 100.938 46.5872 100.796 46.7375C100.748 46.8027 100.713 46.8765 100.694 46.9549C100.554 47.3307 100.143 47.5159 99.7691 47.6609C99.3956 47.8058 98.9925 47.8863 98.7667 47.6099C98.6955 47.5022 98.6605 47.3747 98.6667 47.2458C98.673 47.1169 98.7203 46.9934 98.8017 46.8932C98.967 46.6943 99.1662 46.5261 99.3902 46.3966C100.626 45.5251 101.468 44.2018 101.734 42.7139C102.08 42.9891 102.31 43.3851 102.376 43.8224C102.465 44.2492 102.475 44.6894 102.564 45.1162C102.696 45.7282 102.989 46.3 103.056 46.92C103.091 47.2502 103.056 47.583 103.056 47.9132C103.068 48.236 103.106 48.5573 103.169 48.8741C102.54 48.2084 102.096 47.4273 101.349 46.8341Z" fill="#F2F2F2"/>
<path d="M95.9103 45.0115C95.6416 44.7565 95.3728 44.5149 95.1041 44.2545C93.9248 43.1049 93.0344 41.6931 92.5054 40.1343C92.1614 40.4027 91.7825 40.757 91.7744 41.208C91.8051 41.5271 91.9284 41.8303 92.1292 42.0803C93.1454 43.6789 93.8163 45.4717 94.099 47.3441C94.2442 47.1175 94.4453 46.9321 94.683 46.8057C94.9206 46.6792 95.1869 46.616 95.4561 46.622C95.8807 46.622 97.7861 47.7494 97.9232 47.4649C98.1247 47.0193 96.2328 45.3148 95.9103 45.0115Z" fill="#F2F2F2"/>
<path d="M101.911 42.8751C104.439 45.3887 107.534 47.26 110.935 48.3321C111.273 48.4058 111.587 48.5647 111.846 48.7938C112.04 49.0354 112.17 49.3214 112.225 49.6259C112.881 52.1867 113.101 54.836 113.319 57.4692C113.376 57.9047 113.367 58.3463 113.292 58.7791C113.133 59.4823 112.634 60.0514 112.142 60.5802C110.599 62.231 108.839 63.9569 108.578 66.2009C108.558 66.6335 108.507 67.0641 108.425 67.4893C108.291 67.9886 107.993 68.4288 107.81 68.9147C106.912 71.3063 108.941 74.2026 107.705 76.4304C108.374 77.7146 108.833 79.0975 109.065 80.5266C109.106 81.0683 109.23 81.6006 109.433 82.1049C109.801 82.8726 110.559 83.3611 111.156 83.9838C112.975 85.8467 113.198 88.6973 113.305 91.2983C113.373 92.7639 113.351 94.4469 112.231 95.4078C111.583 95.9688 110.699 96.1513 109.852 96.2909C108.726 96.4788 107.501 96.613 106.504 96.0574C105.789 95.6601 105.302 94.9649 104.838 94.2939C103.956 93.0135 103.072 91.7358 102.236 90.4232C100.914 88.3537 99.667 85.9889 100.049 83.5624C99.9411 86.0453 99.4171 88.547 98.197 90.7104C96.9769 92.8739 95.0124 94.6804 92.6287 95.3944C90.245 96.1084 87.4582 95.6038 85.6818 93.8644C85.1019 93.2681 84.604 92.5974 84.2011 91.87C83.1899 90.1405 82.4521 88.2654 82.0136 86.311C81.898 85.8037 81.812 85.2373 82.0673 84.7837C82.1882 84.569 82.3737 84.3999 82.5 84.1878C82.9246 83.4658 82.5161 82.5558 82.1049 81.8203C81.4788 81.8794 81.03 81.1439 81.0864 80.5158C81.1429 79.8877 81.5191 79.3428 81.7851 78.7711C82.5645 77.0854 82.3925 75.1232 82.0163 73.306C81.64 71.4888 81.0784 69.6823 81.1213 67.8276C81.167 65.8654 79.7535 64.0992 78.6758 62.4591C78.0739 61.5358 77.3724 60.6768 76.8484 59.7078C75.7558 57.6687 75.5032 55.2841 76.1443 53.0617C76.5206 51.9205 77.0142 50.8213 77.617 49.7816L78.5038 48.1201C78.669 47.7231 78.9253 47.3704 79.2521 47.0907C79.5789 46.8109 79.967 46.6118 80.385 46.5096L86.5203 44.0938C87.3048 43.8261 88.0496 43.4541 88.7347 42.9879C89.4845 42.4242 90.0435 41.6458 90.7583 41.0445C90.8625 40.9352 90.9875 40.8478 91.1259 40.7874C91.2643 40.727 91.4135 40.6949 91.5645 40.6929C92.1396 40.7439 92.3439 41.4686 92.403 42.035C92.5374 43.3019 93.478 44.3756 93.7978 45.6077C95.5284 52.4121 99.1913 58.6878 100.196 65.6346C101.325 62.9262 102.454 60.2125 103.9 57.6625C104.128 57.2964 104.319 56.9089 104.472 56.5056C104.646 55.9238 104.71 55.315 104.663 54.7098C104.59 52.9624 104.125 51.2552 103.666 49.5669C103.069 47.2692 102.532 45.1513 101.911 42.8751Z" fill="#2C2C2C"/>
<path d="M113.604 63.6666C113.722 64.8101 113.837 65.9562 114.05 67.0863C114.297 68.3935 114.673 69.6712 115.047 70.9489C115.229 71.6671 115.491 72.3629 115.826 73.0238C115.948 73.2156 116.044 73.4222 116.114 73.6384C116.245 74.1753 115.944 74.7121 115.815 75.249C115.428 76.8595 116.589 78.6499 115.858 80.1342C115.638 80.5852 115.254 80.9583 115.109 81.4414C114.939 81.9971 115.109 82.5903 115.197 83.1647C115.426 84.7752 114.875 86.4126 114.332 87.9614L113.407 90.5758C112.564 89.0082 111.712 87.4246 110.545 86.0798C110.129 85.5966 109.675 85.1483 109.29 84.6383C108.717 83.8369 108.265 82.9561 107.947 82.0239C107.126 79.809 106.657 77.4796 106.557 75.1201C106.491 74.4493 106.569 73.772 106.786 73.1338C106.964 72.7647 107.163 72.4062 107.382 72.0601C108.103 70.7637 108.25 69.2283 108.237 67.7466C108.223 66.2649 108.065 64.7779 108.237 63.3042C108.377 62.0738 108.742 60.8794 109.312 59.7799C109.648 59.0678 110.148 58.4452 110.771 57.9627C111.236 57.6151 111.803 57.431 112.384 57.4392C113.262 57.4902 113.061 58.2445 113.136 58.9719L113.604 63.6666Z" fill="#2C2C2C"/>
<path d="M74.075 60.0136C73.5268 61.6242 73.0323 63.249 72.5916 64.8882C72.1616 66.4987 71.7773 68.1182 71.4387 69.7466C71.2647 70.4626 71.1675 71.195 71.1484 71.9315C71.1828 72.7891 71.3301 73.6383 71.5865 74.4574C73.3172 80.6874 76.4721 86.4343 80.0249 91.8377C81.0401 90.5731 82.2459 89.4737 83.5991 88.579C83.7098 88.5135 83.8023 88.4212 83.8678 88.3106C83.9019 88.2062 83.9118 88.0955 83.8969 87.9867C83.8821 87.8779 83.8427 87.7739 83.7818 87.6825C82.8009 85.6747 81.2476 83.9058 80.7585 81.7235C80.5543 80.8163 80.5462 79.8714 80.3151 78.9696C80.0168 77.8019 79.3503 76.7336 79.1972 75.5364C79.0332 74.2319 79.4659 72.8093 78.8532 71.6524C80.1028 71.1665 80.8257 69.8808 81.3551 68.6488C81.9208 67.3883 82.3253 66.0617 82.5591 64.7003C82.9271 62.0902 82.4156 59.4321 81.1052 57.1442C80.4652 56.003 79.6438 54.9731 78.6731 54.095C78.3533 53.8078 77.5982 52.9837 77.1332 52.9918C76.5125 53.0052 76.3136 54.0091 76.1362 54.46C75.4187 56.3014 74.7092 58.1454 74.075 60.0136Z" fill="#2C2C2C"/>
<path d="M85.2065 90.0582C85.2872 90.1172 85.3785 90.1977 85.357 90.2944C85.3355 90.391 85.2576 90.4152 85.1877 90.4554C84.8244 90.7128 84.5532 91.0797 84.4137 91.5023C83.9672 92.5076 83.5778 93.5373 83.2474 94.5864C82.646 93.6865 81.9387 92.8619 81.1405 92.1304C80.5278 91.5667 79.8425 91.0325 79.5146 90.2702C79.5146 90.2487 80.9228 89.2099 81.0518 89.0972C81.4469 88.7456 81.944 87.7712 82.3525 87.5565C82.8148 87.3149 83.2555 88.2624 83.6075 88.6436C84.0918 89.1673 84.6275 89.6412 85.2065 90.0582Z" fill="#FBBEBE"/>
<path d="M107.06 31.9821C107.041 31.6305 106.996 31.2413 106.727 31.0131C106.491 30.8501 106.207 30.7716 105.921 30.7903C104.354 30.7393 102.733 31.0024 101.255 30.4763C100.283 30.13 99.4521 29.4643 98.5035 29.051C97.5549 28.6376 96.3402 28.5276 95.5743 29.2228C94.9938 29.7596 94.8352 30.5837 94.6337 31.3433C94.1899 33.0199 93.3999 34.5852 92.3145 35.9387C91.5862 35.7132 91.0648 35.0636 90.7289 34.3818C89.5867 32.0573 90.1484 29.2818 90.96 26.8177C91.2287 25.991 91.527 25.1723 91.8253 24.3563L92.4811 22.5525C93.3417 22.4681 94.1413 22.0707 94.7277 21.4359L95.0099 22.1203C95.7387 22.0942 96.442 21.8459 97.0254 21.409C97.2512 21.8331 97.8317 21.9459 98.3019 21.809C98.7722 21.6721 99.178 21.409 99.6456 21.2721C100.895 20.8695 102.228 21.4896 103.54 21.5593C104.095 21.5459 104.65 21.562 105.203 21.6077C106.751 21.8573 107.845 23.3121 108.318 24.8046C108.632 25.7977 108.893 27.019 109.874 27.3707C109.895 27.7464 109.229 27.8189 109.172 28.1759C109.166 28.2949 109.194 28.4133 109.253 28.5168L110.153 30.4468C109.723 30.5547 109.27 30.5323 108.853 30.3823C108.447 31.3352 107.1 32.7096 107.06 31.9821Z" fill="#192534"/>
<path d="M152.681 36.1833C153.138 37.6552 153.497 39.1553 153.756 40.674C153.95 41.8121 154.063 43.0764 153.41 44.0266C155.898 40.2875 158.497 36.4357 162.278 34.0225C161.508 33.1887 160.922 32.2024 160.559 31.1276C160.196 30.0529 160.063 28.9139 160.169 27.7844C160.19 27.559 157.065 28.7373 156.825 28.8715C155.729 29.4809 154.724 30.2378 153.654 30.8901C153.101 31.2256 150.795 32.0201 150.773 32.5006C150.773 32.8093 151.69 33.7541 151.862 34.0789C152.199 34.7537 152.474 35.4582 152.681 36.1833Z" fill="#FBBEBE"/>
<path d="M164.245 177.206C163.63 176.774 162.91 176.516 162.161 176.459C161.411 176.402 160.66 176.549 159.988 176.884C158.77 177.512 157.951 178.701 156.844 179.506C154.941 180.886 152.428 180.996 150.2 181.742C149.609 181.941 148.98 182.236 148.73 182.816C148.647 183.06 148.613 183.318 148.632 183.575C148.651 183.832 148.722 184.082 148.841 184.311C149.213 185.14 149.866 185.812 150.684 186.209C151.684 186.687 152.834 186.708 153.941 186.722L163.562 186.834C166.518 186.869 169.493 186.904 172.43 187.272C173.116 187.358 173.857 187.452 174.462 187.116C175.446 186.579 175.559 185.221 175.483 184.102C175.285 181.266 174.651 178.477 173.602 175.834C173.487 175.542 173.333 175.209 173.008 175.155C172.777 175.145 172.551 175.217 172.369 175.359C169.654 176.97 166.217 177.88 163.331 176.591" fill="white"/>
<path d="M169.06 115.899C167.985 122.134 168.687 128.541 169.896 134.75C170.119 135.986 170.412 137.209 170.775 138.411C171.208 139.78 171.791 141.095 172.197 142.472C173.229 145.962 173.083 149.693 172.93 153.335L172.226 169.91C172.167 171.301 172.113 172.723 172.533 174.049C172.702 174.586 172.909 175.257 172.481 175.62C172.314 175.74 172.119 175.815 171.914 175.837C169.991 176.191 168.005 175.893 166.271 174.992L166.08 158.248C166.021 153.086 165.959 147.903 165.164 142.805C164.532 138.752 163.436 134.753 163.363 130.651C163.288 126.356 164.341 122.118 165.416 117.955C165.647 117.064 166.491 116.411 167.185 115.807C167.427 115.569 167.721 115.391 168.045 115.287C168.367 115.198 168.862 115.628 169.06 115.899Z" fill="#3F3D56"/>
<path opacity="0.1" d="M169.06 115.899C167.985 122.134 168.687 128.541 169.896 134.75C170.119 135.986 170.412 137.209 170.775 138.411C171.208 139.78 171.791 141.095 172.197 142.472C173.229 145.962 173.083 149.693 172.93 153.335L172.226 169.91C172.167 171.301 172.113 172.723 172.533 174.049C172.702 174.586 172.909 175.257 172.481 175.62C172.314 175.74 172.119 175.815 171.914 175.837C169.991 176.191 168.005 175.893 166.271 174.992L166.08 158.248C166.021 153.086 165.959 147.903 165.164 142.805C164.532 138.752 163.436 134.753 163.363 130.651C163.288 126.356 164.341 122.118 165.416 117.955C165.647 117.064 166.491 116.411 167.185 115.807C167.427 115.569 167.721 115.391 168.045 115.287C168.367 115.198 168.862 115.628 169.06 115.899Z" fill="black"/>
<path d="M148.882 96.4116C148.484 98.0462 149.328 99.74 149.234 101.42C149.18 102.438 148.78 103.452 148.965 104.451C149.15 105.449 149.865 106.201 150.247 107.116C150.525 107.881 150.672 108.686 150.682 109.5C150.792 111.508 150.704 113.526 150.628 115.526C150.502 118.881 150.408 122.255 150.851 125.581C151.238 128.462 152.022 131.276 153.181 133.942C153.533 134.667 153.823 135.421 154.049 136.194C154.198 136.915 154.297 137.645 154.345 138.379C154.601 140.767 155.242 143.098 156.245 145.28C156.93 146.775 158.126 147.965 158.505 149.551C158.865 151.07 158.623 152.673 158.884 154.211C159.075 155.351 159.54 156.431 159.798 157.558C160.134 159.015 160.126 160.527 160.295 162.014C160.779 166.308 162.732 170.603 161.566 174.769C161.332 175.607 160.969 176.457 161.133 177.311C161.214 177.73 161.418 178.143 161.327 178.559C161.252 178.913 160.978 179.187 160.838 179.523C160.569 180.151 160.854 180.897 161.332 181.383C161.843 181.836 162.436 182.186 163.079 182.414C165.06 183.259 167.11 184.118 169.26 184.099C169.521 184.113 169.782 184.065 170.021 183.96C170.408 183.758 170.598 183.321 170.762 182.918L171.864 180.197C171.999 179.866 172.133 179.48 171.947 179.174C171.818 179.006 171.662 178.861 171.485 178.744C170.596 177.995 170.797 176.597 171.034 175.472C171.638 172.584 171.973 169.645 172.033 166.695C172.152 160.811 171.182 154.962 170.214 149.156C169.878 147.14 169.54 145.111 168.87 143.179C168.201 141.246 167.215 139.386 167.376 137.378C167.548 135.209 166.984 132.936 167.376 130.796C167.769 128.657 168.389 126.563 168.79 124.427C169.308 121.654 169.437 118.827 169.596 116.014C169.663 114.866 169.749 113.679 170.287 112.659C170.601 112.063 171.058 111.553 171.41 110.976C172.318 109.476 172.463 107.615 173.331 106.091C173.743 105.369 174.31 104.733 174.611 103.96C174.822 103.35 174.933 102.71 174.939 102.065C175.024 100.445 174.934 98.8202 174.67 97.2195C170.095 94.8944 165.022 93.7187 159.889 93.7945C157.925 93.8267 155.939 94.0253 154.095 94.7044C152.338 95.3567 150.736 96.272 148.882 96.4116Z" fill="#3F3D56"/>
<path d="M159.9 181.453C159.11 182.435 159.164 183.839 158.658 184.996C158.046 186.4 156.68 187.299 155.385 188.118L147.323 193.218C146.882 193.486 146.409 193.816 146.248 194.315C146.171 194.634 146.185 194.968 146.288 195.279C146.481 195.953 146.839 196.567 147.332 197.066C147.824 197.565 148.433 197.933 149.105 198.135C149.818 198.305 150.551 198.38 151.284 198.358L154.909 198.406C156.014 198.449 157.12 198.406 158.218 198.277C159.223 198.132 160.201 197.845 161.201 197.663C163.02 197.333 164.89 197.362 166.712 197.043C167.828 196.824 168.93 196.539 170.012 196.192C171.329 195.797 172.67 195.386 173.799 194.605C174.11 194.416 174.362 194.145 174.527 193.822C174.718 193.379 174.613 192.871 174.506 192.402L172.775 184.805C172.677 184.173 172.447 183.568 172.098 183.031C171.714 182.521 171.023 182.183 170.424 182.4C170.176 182.513 169.943 182.653 169.728 182.819C168.841 183.401 167.704 183.498 166.656 183.316C165.979 183.195 165.084 183.01 164.538 182.561C164.124 182.22 164.001 181.692 163.649 181.305C163.402 181.052 163.105 180.853 162.776 180.722C162.447 180.591 162.095 180.531 161.741 180.545C161.388 180.559 161.041 180.647 160.724 180.803C160.407 180.96 160.126 181.181 159.9 181.453Z" fill="white"/>
<path d="M154.672 35.1363C160.035 35.1363 164.382 30.7944 164.382 25.4383C164.382 20.0822 160.035 15.7402 154.672 15.7402C149.31 15.7402 144.963 20.0822 144.963 25.4383C144.963 30.7944 149.31 35.1363 154.672 35.1363Z" fill="#FBBEBE"/>
<path d="M147.182 26.0075C148.112 25.4868 148.112 23.9863 149.064 23.487C150.015 22.9878 151.095 23.8548 151.705 24.7298C152.595 26.0114 153.212 27.461 153.519 28.9897C153.605 29.4245 153.686 29.8996 154.014 30.2029C154.342 30.5063 154.772 30.5438 155.191 30.5868C156.418 30.7085 157.647 30.8194 158.878 30.9196C160.249 31.0297 161.694 31.1183 162.939 30.5304C163.43 30.3111 163.851 29.9622 164.159 29.5212C164.405 29.0977 164.581 28.6372 164.68 28.1576C165.322 25.7176 165.97 23.2482 166.024 20.725C166.045 19.6835 165.954 18.6045 165.451 17.6918C165.158 17.155 164.728 16.6879 164.607 16.0974C164.487 15.5069 164.876 14.7553 165.489 14.8197C164.935 14.8425 164.383 14.7378 163.877 14.5137C163.39 14.2453 163.03 13.6682 163.202 13.1421C161.837 13.3166 160.842 11.9691 159.778 11.0967C159.605 10.9254 159.372 10.8289 159.128 10.8283C158.941 10.8749 158.76 10.9443 158.59 11.035C158.053 11.2229 157.491 10.8659 156.94 10.7102C155.462 10.2968 153.584 11.2954 152.487 10.2217C152.592 10.9062 151.751 11.3652 151.058 11.3517C150.364 11.3383 149.649 11.0833 148.994 11.3142C149.089 11.4876 149.144 11.68 149.156 11.8773C149.168 12.0747 149.136 12.2723 149.063 12.4559C148.989 12.6395 148.876 12.8047 148.731 12.9395C148.587 13.0744 148.414 13.1757 148.225 13.236L148.55 13.9447C148.215 14.0116 147.906 14.1707 147.656 14.404C147.407 14.6374 147.228 14.9357 147.139 15.2653C146.782 16.6745 146.871 18.6769 146.957 20.1264C147 20.7626 147.621 25.7686 147.182 26.0075Z" fill="#192534"/>
<path d="M155.468 37.9386C150.59 43.4171 149.349 51.1289 148.309 58.3896L146.777 69.1104C146.379 71.8912 145.971 74.6721 145.624 77.461C145.382 79.3694 145.156 81.3074 145.42 83.2132C145.627 84.7164 146.129 86.1658 146.549 87.6126C147.639 91.4074 148.182 95.3383 148.161 99.2863C148.486 98.3307 149.612 97.9442 150.601 97.7294C158.899 95.9311 167.557 96.8546 175.287 100.363C176.645 96.5645 176.389 92.4093 176.768 88.3937C177.306 82.6683 179.157 77.1201 179.706 71.4054C179.907 69.2768 179.931 67.1375 179.953 64.9982C179.969 63.4279 179.985 61.8415 179.657 60.3035C179.292 58.6017 178.52 57.0153 177.722 55.4719C175.516 51.1815 173.064 47.0213 170.38 43.0118C169.029 40.9933 167.62 39.015 166.153 37.077C165.41 36.0946 164.651 35.1229 163.877 34.162C163.127 33.2305 162.802 32.4226 161.611 32.9809C159.362 34.0331 157.105 36.1 155.468 37.9386Z" fill="#F42053"/>
<path d="M158.263 83.5379C157.073 83.5809 155.882 83.5432 154.697 83.4252C153.818 83.3393 152.921 83.2104 152.063 83.4252C151.691 83.5189 151.342 83.69 151.04 83.9271C150.927 84.0267 150.847 84.1568 150.808 84.3014C150.769 84.446 150.773 84.5989 150.819 84.7413C150.866 84.8837 150.953 85.0095 151.07 85.1032C151.187 85.197 151.328 85.2547 151.478 85.2692L152.397 85.3498C152.98 85.4008 153.587 85.4598 154.041 85.8866C154.228 86.0543 154.346 86.2844 154.375 86.5335C154.431 87.1589 153.888 87.4998 153.402 87.7602C152.71 88.0845 152.071 88.5097 151.504 89.0218C151.061 89.4497 150.782 90.0198 150.717 90.6323C150.715 90.6869 150.727 90.7411 150.753 90.7894C150.778 90.8377 150.816 90.8784 150.862 90.9076C150.909 90.9367 150.962 90.9531 151.017 90.9552C151.071 90.9573 151.125 90.945 151.174 90.9195C152.249 90.3827 152.95 88.7909 154.13 89.0567C153.057 89.396 152.138 90.1022 151.534 91.051C151.385 91.2776 151.317 91.5478 151.341 91.8177C151.365 92.0877 151.48 92.3416 151.667 92.5383C151.853 92.735 152.101 92.863 152.37 92.9014C152.638 92.9399 152.912 92.8866 153.146 92.7501C153.321 92.648 153.49 92.536 153.652 92.4146C154.451 91.7683 155.167 91.0254 155.783 90.2028C154.923 92.0146 154.052 94.1352 155.041 95.9363C155.09 96.0354 155.167 96.118 155.263 96.1742C155.358 96.2305 155.468 96.2578 155.578 96.253C155.89 96.2208 155.982 95.9282 156.033 95.6706C156.194 94.8411 156.234 93.9661 156.643 93.2279C157.589 91.5154 159.921 91.349 161.698 90.5142C163.829 89.5264 165.288 87.4005 165.877 85.1297C166.082 84.4674 166.119 83.7641 165.981 83.0843C165.586 81.557 163.7 81.2053 162.488 81.9435C161.002 82.8857 160.139 83.4789 158.263 83.5379Z" fill="#FBBEBE"/>
<path opacity="0.1" d="M156.376 53.4938C158.257 56.3955 161.522 58.0301 164.323 60.0675C165.006 60.5119 165.602 61.0778 166.08 61.737C166.787 62.8268 166.886 64.2119 166.741 65.4949C166.559 67.1887 166.013 68.818 165.473 70.4339L164.298 73.9368C163.554 76.1593 162.785 78.4275 161.369 80.2957C161.006 80.7708 160.584 81.2781 160.601 81.874C160.632 82.2182 160.75 82.5489 160.945 82.8349C161.398 83.5736 161.995 84.2138 162.701 84.7173C163.407 85.2209 164.207 85.5775 165.054 85.7661C165.561 85.8949 166.092 85.8949 166.599 85.7661C167.324 85.5513 167.87 84.9608 168.375 84.4025C170.794 81.7371 173.213 79.0341 174.959 75.907C176.666 72.855 177.687 69.4649 178.628 66.1069C179.015 64.8707 179.285 63.6009 179.434 62.3141C179.633 59.8983 178.998 57.4826 177.961 55.3003C176.924 53.118 175.497 51.1425 174.027 49.2232C172.639 47.3381 171.098 45.5712 169.418 43.9407C166.494 41.2109 162.917 39.6057 159.004 41.1545C156.242 42.2497 155.207 44.5339 154.96 47.4597C154.75 49.5722 155.249 51.6944 156.376 53.4938Z" fill="black"/>
<path d="M157.354 52.758C159.235 55.6596 162.503 57.2943 165.301 59.3316C165.982 59.7804 166.575 60.3499 167.05 61.0119C167.757 62.1017 167.856 63.4841 167.711 64.7698C167.526 66.4636 166.983 68.0929 166.44 69.7088L165.266 73.1983C164.521 75.4208 163.753 77.6863 162.337 79.5571C161.976 80.0323 161.554 80.5369 161.571 81.1355C161.6 81.4792 161.719 81.8095 161.915 82.0937C162.367 82.8327 162.964 83.4733 163.669 83.9773C164.375 84.4813 165.175 84.8385 166.021 85.0276C166.529 85.1564 167.061 85.1564 167.569 85.0276C168.294 84.8155 168.837 84.2223 169.345 83.6667C171.764 80.9986 174.183 78.2982 175.929 75.1711C177.636 72.1192 178.657 68.729 179.598 65.3684C179.986 64.1334 180.256 62.8643 180.404 61.5783C180.603 59.1625 179.968 56.7467 178.934 54.5618C177.899 52.3768 176.469 50.4039 174.999 48.4847C173.607 46.6094 172.062 44.8524 170.38 43.2317C167.459 40.5046 163.882 38.8967 159.969 40.4482C157.204 41.5434 156.172 43.8249 155.922 46.7534C155.724 48.8578 156.228 50.9685 157.354 52.758Z" fill="#F42053"/>
<path d="M216.778 149.038C216.78 149.738 216.708 150.436 216.563 151.121C216.536 151.25 216.507 151.389 216.477 151.499C215.714 154.557 213.561 156.793 210.992 156.935C210.906 156.935 210.82 156.935 210.723 156.935C208.006 156.935 205.709 154.594 204.951 151.371C204.929 151.285 204.911 151.199 204.892 151.102C204.747 150.417 204.675 149.719 204.677 149.019C204.677 144.652 207.383 141.114 210.723 141.114C214.064 141.114 216.778 144.679 216.778 149.038Z" fill="#3F3D56"/>
<path opacity="0.1" d="M216.778 149.038C216.78 149.738 216.708 150.436 216.563 151.121C216.536 151.25 216.507 151.39 216.477 151.5C216.386 151.5 216.297 151.5 216.208 151.5C215.543 151.464 214.881 151.374 214.23 151.231C213.654 151.409 213.064 151.544 212.468 151.634C212.01 151.703 211.549 151.746 211.086 151.763H210.619C210.065 151.763 209.512 151.726 208.963 151.653C208.076 151.534 207.204 151.318 206.364 151.009C205.905 151.161 205.436 151.287 204.962 151.384C204.94 151.298 204.921 151.212 204.903 151.116C204.758 150.431 204.686 149.733 204.688 149.033C204.688 144.666 207.394 141.128 210.734 141.128C214.075 141.128 216.778 144.679 216.778 149.038Z" fill="black"/>
<path d="M229.678 134.312C229.68 132.391 229.229 130.495 228.361 128.78L221.25 130.989L227.493 127.323C226.446 125.812 225.072 124.556 223.474 123.646C221.876 122.737 220.094 122.197 218.259 122.067C217.967 121.624 217.647 121.201 217.3 120.8L207.088 123.975L215.464 119.055C213.862 117.827 211.981 117.012 209.988 116.683C207.995 116.353 205.952 116.52 204.039 117.167C202.126 117.814 200.402 118.923 199.02 120.394C197.638 121.865 196.64 123.654 196.115 125.602L204.862 135.66L195.373 128.804C192.97 130.507 191.258 133.016 190.551 135.874C189.844 138.731 190.189 141.747 191.522 144.372C192.855 146.998 195.088 149.057 197.814 150.175C200.54 151.294 203.577 151.397 206.373 150.466C208.902 151.394 211.665 151.471 214.241 150.683C216.037 151.078 217.899 151.066 219.69 150.647C221.481 150.228 223.155 149.414 224.589 148.264C226.023 147.114 227.18 145.657 227.976 144.002C228.772 142.346 229.187 140.533 229.189 138.696C229.189 138.427 229.189 138.159 229.162 137.89C229.51 136.73 229.684 135.524 229.678 134.312Z" fill="#F42053"/>
<path opacity="0.1" d="M229.465 136.589C225.71 135.878 221.859 135.829 218.087 136.444C213.816 137.15 209.452 138.701 205.276 137.569C202.825 136.903 200.707 135.362 198.313 134.506C196.003 133.701 193.514 133.552 191.124 134.076C190.214 136.252 189.949 138.644 190.363 140.966C190.777 143.288 191.852 145.442 193.458 147.171C195.065 148.899 197.136 150.129 199.423 150.713C201.711 151.298 204.119 151.212 206.359 150.466C208.888 151.395 211.651 151.471 214.228 150.684C216.024 151.078 217.886 151.066 219.676 150.647C221.467 150.229 223.141 149.414 224.575 148.264C226.009 147.114 227.166 145.658 227.963 144.002C228.759 142.346 229.173 140.533 229.175 138.696C229.175 138.427 229.175 138.159 229.148 137.891C229.278 137.463 229.384 137.028 229.465 136.589Z" fill="black"/>
</g>
<defs>
<clipPath id="clip0_513_952">
<rect width="294" height="204" fill="white"/>
</clipPath>
</defs>
</svg>
